<?xml version="1.0" standalone="no"?>
<!DOCTYPE svg PUBLIC "-//W3C//DTD SVG 20010904//EN"
 "http://www.w3.org/TR/2001/REC-SVG-20010904/DTD/svg10.dtd">
<svg version="1.0" xmlns="http://www.w3.org/2000/svg"
 width="16.000000pt" height="16.000000pt" viewBox="0 0 16.000000 16.000000"
 preserveAspectRatio="xMidYMid meet">
<metadata>
Created by potrace 1.11, written by Peter Selinger 2001-2013
</metadata>
<g transform="translate(0.000000,16.000000) scale(0.008889,-0.008889)"
fill="#000000" stroke="none">
<path d="M187 1583 c-10 -9 -8 -1375 1 -1391 7 -10 156 -12 713 -10 l704 3 0
700 0 700 -706 3 c-388 1 -709 -1 -712 -5z m1383 -698 l0 -665 -675 0 -675 0
0 665 0 665 675 0 675 0 0 -665z"/>
<path d="M550 1427 c-150 -43 -234 -138 -261 -292 -30 -175 54 -350 201 -418
66 -30 206 -29 274 2 62 29 125 92 155 156 24 49 44 194 30 216 -3 6 -74 8
-175 7 l-169 -3 -3 -44 c-6 -87 -2 -91 88 -91 75 0 80 -1 80 -21 0 -30 -62
-85 -103 -93 -46 -9 -108 6 -147 34 -60 43 -86 149 -64 265 10 55 86 130 141
140 58 9 120 -12 164 -57 20 -21 40 -38 43 -38 14 0 106 65 111 78 8 22 -91
118 -146 141 -62 27 -160 35 -219 18z"/>
<path d="M1203 1406 c-137 -43 -221 -161 -231 -321 -12 -218 132 -385 333
-385 67 0 163 28 185 55 8 10 10 37 5 89 l-7 74 -44 -33 c-103 -79 -253 -46
-299 66 -24 59 -24 172 0 219 39 77 91 112 166 112 49 -1 133 -36 158 -66 28
-33 34 -17 27 66 -8 92 -13 99 -90 123 -60 18 -146 18 -203 1z"/>
<path d="M374 645 c-10 -25 4 -45 30 -45 31 0 40 14 26 40 -13 23 -48 27 -56
5z"/>
<path d="M505 646 c3 -6 8 -19 11 -28 9 -26 21 -22 38 10 l14 28 -34 0 c-21 0
-32 -4 -29 -10z"/>
<path d="M770 645 c-20 -24 -4 -45 35 -45 23 0 38 6 41 15 8 21 -14 45 -41 45
-12 0 -28 -7 -35 -15z m40 -15 c0 -5 -4 -10 -10 -10 -5 0 -10 5 -10 10 0 6 5
10 10 10 6 0 10 -4 10 -10z"/>
<path d="M996 638 c-23 -32 -21 -35 24 -35 22 0 40 3 40 6 0 12 -31 51 -40 51
-5 0 -16 -10 -24 -22z"/>
<path d="M1197 653 c-4 -3 -7 -16 -7 -28 0 -17 6 -22 29 -22 23 0 30 6 34 23
5 28 -36 48 -56 27z"/>
<path d="M1390 653 c0 -11 25 -53 31 -53 5 0 15 13 23 28 l14 28 -34 0 c-19 0
-34 -1 -34 -3z"/>
<path d="M386 528 c-23 -32 -21 -36 24 -34 43 1 50 14 22 39 -24 22 -28 21
-46 -5z"/>
<path d="M597 543 c-4 -3 -7 -16 -7 -29 0 -18 6 -22 33 -22 27 0 33 4 33 22 0
30 -39 50 -59 29z"/>
<path d="M817 532 c-26 -28 -21 -37 23 -38 45 -2 47 2 24 34 -18 27 -26 27
-47 4z"/>
<path d="M1020 520 c0 -27 3 -30 29 -30 36 0 41 8 30 38 -6 15 -17 22 -34 22
-21 0 -25 -5 -25 -30z"/>
<path d="M1224 535 c-8 -19 2 -45 16 -45 5 0 10 14 10 30 0 31 -16 41 -26 15z"/>
<path d="M1406 528 c-23 -32 -21 -35 24 -35 42 0 49 10 26 40 -18 23 -32 22
-50 -5z"/>
<path d="M367 423 c-11 -10 -8 -71 3 -78 6 -4 17 -2 24 4 9 7 16 7 23 0 18
-18 33 -1 33 36 0 38 -14 52 -35 35 -9 -7 -15 -8 -20 0 -7 12 -19 13 -28 3z"/>
<path d="M494 395 c-20 -49 -19 -52 26 -52 22 0 40 4 40 9 0 20 -30 78 -40 78
-6 0 -18 -16 -26 -35z"/>
<path d="M594 406 c-11 -44 -2 -60 34 -62 33 -2 33 -1 30 40 -3 36 -6 41 -30
44 -22 3 -29 -2 -34 -22z"/>
<path d="M700 386 c0 -41 1 -42 36 -43 29 -1 34 2 29 15 -8 19 -9 31 -4 51 3
10 -6 15 -28 17 -32 2 -33 1 -33 -40z"/>
<path d="M810 384 c0 -44 1 -45 28 -42 15 2 26 6 25 11 -2 4 -3 23 -3 42 0 31
-3 35 -25 35 -23 0 -25 -4 -25 -46z"/>
<path d="M900 416 c0 -8 5 -18 10 -21 6 -3 10 -17 10 -31 0 -15 6 -24 15 -24
9 0 15 9 15 24 0 14 5 28 10 31 24 15 9 35 -25 35 -24 0 -35 -5 -35 -14z"/>
<path d="M1010 386 c0 -34 4 -46 15 -46 8 0 15 6 15 14 0 8 7 17 16 20 27 10
13 51 -18 54 -27 3 -28 2 -28 -42z"/>
<path d="M1104 406 c-9 -38 4 -66 31 -66 29 0 41 16 21 27 -8 4 -16 19 -18 32
-4 33 -26 38 -34 7z"/>
<path d="M1207 393 c-8 -21 -13 -41 -11 -44 2 -3 20 -5 41 -4 40 1 43 8 23 61
-14 35 -36 29 -53 -13z"/>
<path d="M1322 418 c-28 -28 -8 -82 28 -76 30 4 39 28 11 28 -27 0 -27 20 -1
27 12 3 19 11 17 17 -5 16 -40 19 -55 4z"/>
<path d="M1414 416 c-3 -8 -4 -27 -2 -43 2 -22 9 -29 31 -31 26 -3 27 -2 27
42 0 43 -2 46 -25 46 -14 0 -28 -6 -31 -14z"/>
</g>
</svg>
